<?xml version="1.0" encoding="iso-8859-1"?>
<!-- Generator: Adobe Illustrator 19.0.0, SVG Export Plug-In . SVG Version: 6.00 Build 0)  -->
<svg version="1.1" id="Layer_1" xmlns="http://www.w3.org/2000/svg" xmlns:xlink="http://www.w3.org/1999/xlink" x="0px" y="0px"
	 viewBox="0 0 512 512" style="enable-background:new 0 0 512 512;" xml:space="preserve">
<g>
	<g>
		<path d="M501.801,183.693h-47.567v-29.578l50.688-23.592c3.596-1.674,5.895-5.28,5.895-9.247c0-3.966-2.299-7.573-5.895-9.247
			l-56.583-26.336c-3.159-1.471-6.849-1.227-9.787,0.647s-4.716,5.116-4.716,8.6v88.752H324.097v-26.972h24.782
			c5.633,0,10.199-4.566,10.199-10.199V42.306c0-5.633-4.566-10.199-10.199-10.199H163.121c-5.633,0-10.199,4.566-10.199,10.199
			v104.215c0,5.633,4.566,10.199,10.199,10.199h24.782v26.972H78.165V94.939c0-3.484-1.779-6.727-4.716-8.6
			s-6.629-2.117-9.787-0.647L7.078,112.03c-3.596,1.674-5.895,5.28-5.895,9.247c0,3.966,2.299,7.573,5.895,9.247l50.688,23.592
			v29.578H10.199C4.566,183.692,0,188.258,0,193.891v275.803c0,5.633,4.566,10.199,10.199,10.199h491.602
			c5.633,0,10.199-4.566,10.199-10.199V193.892C512,188.259,507.434,183.693,501.801,183.693z M454.234,110.937l22.214,10.339
			l-22.214,10.339V110.937z M368.438,204.092v40.657H266.199v-40.657H368.438z M208.301,183.693v-26.972h95.396v26.972H208.301z
			 M173.32,136.322V52.505h165.36v83.817H173.32z M143.562,204.092h102.239v0v40.657H143.562V204.092z M35.552,121.276
			l22.214-10.339v20.678L35.552,121.276z M20.398,204.092h102.765v40.657H20.398V204.092z M245.801,459.496H189.27v-65.922h56.531
			V459.496z M322.73,459.496h-56.531v-65.922h56.531V459.496z M491.602,459.496H343.129v-76.121c0-5.633-4.566-10.199-10.199-10.199
			H179.07c-5.633,0-10.199,4.566-10.199,10.199v76.121H20.398V265.147h471.203V459.496z M491.602,244.749H388.836v-40.657h102.765
			V244.749z"/>
	</g>
</g>
<g>
	<g>
		<path d="M219.683,71.056c-5.633,0-10.199,4.566-10.199,10.199v29.475c0,5.633,4.566,10.199,10.199,10.199
			s10.199-4.566,10.199-10.199V81.256C229.882,75.623,225.316,71.056,219.683,71.056z"/>
	</g>
</g>
<g>
	<g>
		<path d="M292.317,71.056c-5.633,0-10.199,4.566-10.199,10.199v29.475c0,5.633,4.566,10.199,10.199,10.199
			c5.633,0,10.199-4.566,10.199-10.199V81.256C302.517,75.623,297.95,71.056,292.317,71.056z"/>
	</g>
</g>
<g>
	<g>
		<path d="M372.322,310.014h-7.895c-5.633,0-10.199,4.566-10.199,10.199c0,5.633,4.566,10.199,10.199,10.199h7.895
			c5.633,0,10.199-4.566,10.199-10.199C382.521,314.581,377.955,310.014,372.322,310.014z"/>
	</g>
</g>
<g>
	<g>
		<path d="M324.424,310.014H139.679c-5.633,0-10.199,4.566-10.199,10.199c0,5.633,4.566,10.199,10.199,10.199h184.745
			c5.633,0,10.199-4.566,10.199-10.199C334.624,314.581,330.057,310.014,324.424,310.014z"/>
	</g>
</g>
<g>
</g>
<g>
</g>
<g>
</g>
<g>
</g>
<g>
</g>
<g>
</g>
<g>
</g>
<g>
</g>
<g>
</g>
<g>
</g>
<g>
</g>
<g>
</g>
<g>
</g>
<g>
</g>
<g>
</g>
</svg>
